<svg width="70" height="64" viewBox="0 0 70 64" fill="none" xmlns="http://www.w3.org/2000/svg">
<path d="M34.6042 57.3333C34.8153 57.3333 35.0264 57.2805 35.2375 57.175C35.4486 57.0694 35.607 56.9639 35.7125 56.8583L61.6792 30.8917C62.3125 30.2583 62.7743 29.5458 63.0646 28.7542C63.3549 27.9625 63.5 27.1708 63.5 26.3792C63.5 25.5347 63.3549 24.7299 63.0646 23.9646C62.7743 23.1993 62.3125 22.5264 61.6792 21.9458L48.2208 8.48749C47.6403 7.85416 46.9674 7.39236 46.2021 7.10208C45.4368 6.8118 44.632 6.66666 43.7875 6.66666C42.9958 6.66666 42.2042 6.8118 41.4125 7.10208C40.6208 7.39236 39.9083 7.85416 39.275 8.48749L38.4042 9.35833L44.2625 15.2958C45.0542 16.0347 45.6347 16.8792 46.0042 17.8292C46.3736 18.7792 46.5583 19.7819 46.5583 20.8375C46.5583 23.0542 45.8063 24.9146 44.3021 26.4187C42.7979 27.9229 40.9375 28.675 38.7208 28.675C37.6653 28.675 36.6493 28.4903 35.6729 28.1208C34.6965 27.7514 33.8389 27.1972 33.1 26.4583L27.1625 20.6L13.3083 34.4542C13.15 34.6125 13.0313 34.784 12.9521 34.9687C12.8729 35.1535 12.8333 35.3514 12.8333 35.5625C12.8333 35.9847 12.9917 36.3674 13.3083 36.7104C13.625 37.0535 13.9945 37.225 14.4167 37.225C14.6278 37.225 14.8389 37.1722 15.05 37.0667C15.2611 36.9611 15.4195 36.8555 15.525 36.75L26.2917 25.9833L30.725 30.4167L20.0375 41.1833C19.8792 41.3417 19.7604 41.5132 19.6813 41.6979C19.6021 41.8826 19.5625 42.0806 19.5625 42.2917C19.5625 42.7139 19.7208 43.0833 20.0375 43.4C20.3542 43.7167 20.7236 43.875 21.1458 43.875C21.357 43.875 21.5681 43.8222 21.7792 43.7167C21.9903 43.6111 22.1486 43.5056 22.2542 43.4L33.0208 32.7125L37.4542 37.1458L26.7667 47.9125C26.6083 48.0181 26.4896 48.1764 26.4104 48.3875C26.3313 48.5986 26.2917 48.8097 26.2917 49.0208C26.2917 49.4431 26.45 49.8125 26.7667 50.1292C27.0833 50.4458 27.4528 50.6042 27.875 50.6042C28.0861 50.6042 28.284 50.5646 28.4688 50.4854C28.6535 50.4062 28.825 50.2875 28.9833 50.1292L39.75 39.4417L44.1833 43.875L33.4167 54.6417C33.2583 54.8 33.1396 54.9715 33.0604 55.1562C32.9813 55.341 32.9417 55.5389 32.9417 55.75C32.9417 56.1722 33.1132 56.5417 33.4563 56.8583C33.7993 57.175 34.182 57.3333 34.6042 57.3333ZM34.525 63.6667C32.5722 63.6667 30.8438 63.0201 29.3396 61.7271C27.8354 60.434 26.9514 58.8111 26.6875 56.8583C24.8931 56.5944 23.3889 55.8555 22.175 54.6417C20.9611 53.4278 20.2222 51.9236 19.9583 50.1292C18.1639 49.8653 16.6729 49.1132 15.4854 47.8729C14.2979 46.6326 13.5722 45.1417 13.3083 43.4C11.3028 43.1361 9.66668 42.2653 8.40001 40.7875C7.13334 39.3097 6.50001 37.5681 6.50001 35.5625C6.50001 34.5069 6.69793 33.491 7.09376 32.5146C7.48959 31.5382 8.05695 30.6805 8.79584 29.9417L27.1625 11.6542L37.5333 22.025C37.6389 22.1833 37.7972 22.3021 38.0083 22.3812C38.2195 22.4604 38.4306 22.5 38.6417 22.5C39.1167 22.5 39.5125 22.3549 39.8292 22.0646C40.1458 21.7743 40.3042 21.3917 40.3042 20.9167C40.3042 20.7056 40.2646 20.4944 40.1854 20.2833C40.1063 20.0722 39.9875 19.9139 39.8292 19.8083L28.5083 8.48749C27.9278 7.85416 27.2549 7.39236 26.4896 7.10208C25.7243 6.8118 24.9195 6.66666 24.075 6.66666C23.2833 6.66666 22.4917 6.8118 21.7 7.10208C20.9083 7.39236 20.1958 7.85416 19.5625 8.48749L8.40001 19.7292C7.92501 20.2042 7.52918 20.7583 7.21251 21.3917C6.89584 22.025 6.68473 22.6583 6.57918 23.2917C6.47362 23.925 6.47362 24.5715 6.57918 25.2312C6.68473 25.891 6.89584 26.5111 7.21251 27.0917L2.62084 31.6833C1.72362 30.4694 1.0639 29.1368 0.641676 27.6854C0.219454 26.234 0.0611209 24.7694 0.166676 23.2917C0.272232 21.8139 0.641676 20.3757 1.27501 18.9771C1.90834 17.5785 2.77918 16.325 3.88751 15.2167L15.05 4.05416C16.3167 2.84027 17.7285 1.91666 19.2854 1.28333C20.8424 0.649995 22.4389 0.333328 24.075 0.333328C25.7111 0.333328 27.3076 0.649995 28.8646 1.28333C30.4215 1.91666 31.807 2.84027 33.0208 4.05416L33.8917 4.92499L34.7625 4.05416C36.0292 2.84027 37.441 1.91666 38.9979 1.28333C40.5549 0.649995 42.1514 0.333328 43.7875 0.333328C45.4236 0.333328 47.0201 0.649995 48.5771 1.28333C50.134 1.91666 51.5195 2.84027 52.7333 4.05416L66.1125 17.4333C67.3264 18.6472 68.25 20.0458 68.8833 21.6292C69.5167 23.2125 69.8333 24.8222 69.8333 26.4583C69.8333 28.0944 69.5167 29.691 68.8833 31.2479C68.25 32.8049 67.3264 34.1903 66.1125 35.4042L40.1458 61.2917C39.407 62.0305 38.5493 62.6111 37.5729 63.0333C36.5965 63.4556 35.5806 63.6667 34.525 63.6667Z" fill="url(#paint0_linear_2034_90)"/>
<defs>
<linearGradient id="paint0_linear_2034_90" x1="34.9842" y1="0.333328" x2="34.9842" y2="63.6667" gradientUnits="userSpaceOnUse">
<stop stop-color="#ECCE8F"/>
<stop offset="1" stop-color="#9F895A"/>
</linearGradient>
</defs>
</svg>
