<svg width="70" height="61" viewBox="0 0 70 61" fill="none" xmlns="http://www.w3.org/2000/svg">
<path d="M6.49996 41.5C4.75829 41.5 3.26732 40.8799 2.02704 39.6396C0.786765 38.3993 0.166626 36.9083 0.166626 35.1667V6.66668C0.166626 4.92501 0.786765 3.43404 2.02704 2.19376C3.26732 0.953482 4.75829 0.333344 6.49996 0.333344H63.5C65.2416 0.333344 66.7326 0.953482 67.9729 2.19376C69.2132 3.43404 69.8333 4.92501 69.8333 6.66668V35.1667C69.8333 36.9083 69.2132 38.3993 67.9729 39.6396C66.7326 40.8799 65.2416 41.5 63.5 41.5H6.49996ZM6.49996 6.66668V35.1667H63.5V6.66668H6.49996ZM6.73746 52.5833L6.49996 47.8333L63.4208 44.825L63.6583 49.575L6.73746 52.5833ZM6.49996 60.4208V55.6708H63.5V60.4208H6.49996ZM29.4583 30.4167C33.3638 30.4167 37.1243 29.7306 40.7395 28.3583C44.3548 26.9861 47.5083 24.875 50.2 22.025C50.5166 24.2417 51.6777 25.9306 53.6833 27.0917C55.6888 28.2528 57.9055 28.8333 60.3333 28.8333V13C57.9055 13 55.6888 13.5938 53.6833 14.7813C51.6777 15.9688 50.5166 17.6972 50.2 19.9667C47.4027 17.2222 44.2229 15.1111 40.6604 13.6333C37.0979 12.1556 33.3638 11.4167 29.4583 11.4167C25.2888 11.4167 21.2777 12.1424 17.425 13.5938C13.5722 15.0451 10.4583 17.4861 8.08329 20.9167C10.4583 24.3472 13.5722 26.7882 17.425 28.2396C21.2777 29.691 25.2888 30.4167 29.4583 30.4167Z" fill="url(#paint0_linear_2062_6)"/>
<defs>
<linearGradient id="paint0_linear_2062_6" x1="35" y1="0.333344" x2="35" y2="60.4208" gradientUnits="userSpaceOnUse">
<stop stop-color="#ECCE8F"/>
<stop offset="1" stop-color="#9F895A"/>
</linearGradient>
</defs>
</svg>
