<svg width="64" height="38" viewBox="0 0 64 38" fill="none" xmlns="http://www.w3.org/2000/svg">
<path d="M32 38C29.9945 38 28.0549 37.7229 26.1813 37.1687C24.3077 36.6146 22.5792 35.8097 20.9959 34.7542C18.6737 34.5958 16.2987 34.0944 13.8709 33.25C11.4431 32.4056 9.22643 31.0069 7.22087 29.0542C5.21532 27.1014 3.56601 24.5417 2.27296 21.375C0.979902 18.2083 0.333374 14.25 0.333374 9.5V7.91667C0.333374 5.7 1.09865 3.82639 2.62921 2.29583C4.15976 0.765278 6.03337 0 8.25004 0C10.3084 0 12.0896 0.7125 13.5938 2.1375C15.098 3.5625 15.9292 5.27778 16.0875 7.28333C17.5653 6.86111 18.8848 6.33333 20.0459 5.7C21.207 5.06667 22.3945 4.45972 23.6084 3.87917C24.8223 3.24583 26.0889 2.70486 27.4084 2.25625C28.7278 1.80764 30.2584 1.58333 32 1.58333C33.7945 1.58333 35.3382 1.80764 36.6313 2.25625C37.9243 2.70486 39.1778 3.24583 40.3917 3.87917C41.5528 4.45972 42.7271 5.06667 43.9146 5.7C45.1021 6.33333 46.4348 6.86111 47.9125 7.28333C48.0709 5.225 48.9021 3.49653 50.4063 2.09792C51.9105 0.699306 53.6917 0 55.75 0C57.9667 0 59.8403 0.765278 61.3709 2.29583C62.9014 3.82639 63.6667 5.7 63.6667 7.91667V9.5C63.6667 14.25 63.0202 18.2083 61.7271 21.375C60.4341 24.5417 58.7848 27.1014 56.7792 29.0542C54.7737 31.0069 52.557 32.4056 50.1292 33.25C47.7014 34.0944 45.3264 34.5958 43.0042 34.7542C41.4209 35.8097 39.6924 36.6146 37.8188 37.1687C35.9452 37.7229 34.0056 38 32 38ZM14.5834 28.4208C13.5806 26.8375 12.8021 25.109 12.248 23.2354C11.6938 21.3618 11.4167 19.4222 11.4167 17.4167V7.91667C11.4167 7.01944 11.1132 6.26736 10.5063 5.66042C9.89935 5.05347 9.14726 4.75 8.25004 4.75C7.35282 4.75 6.60074 5.05347 5.99379 5.66042C5.38685 6.26736 5.08337 7.01944 5.08337 7.91667V9.5C5.08337 15.3056 6.05976 19.6333 8.01254 22.4833C9.96532 25.3333 12.1556 27.3125 14.5834 28.4208ZM32 33.25C36.3806 33.25 40.1146 31.7062 43.2021 28.6187C46.2896 25.5312 47.8334 21.7972 47.8334 17.4167V12.1917C46.0389 11.7694 44.4688 11.2681 43.123 10.6875C41.7771 10.1069 40.55 9.47361 39.4417 8.7875C37.9639 7.89028 36.6577 7.25694 35.523 6.8875C34.3882 6.51806 33.2139 6.33333 32 6.33333C30.7862 6.33333 29.6118 6.51806 28.4771 6.8875C27.3424 7.25694 26.0362 7.89028 24.5584 8.7875C23.45 9.42083 22.223 10.0542 20.8771 10.6875C19.5313 11.3208 17.9612 11.8222 16.1667 12.1917V17.4167C16.1667 21.7972 17.7105 25.5312 20.798 28.6187C23.8855 31.7062 27.6195 33.25 32 33.25ZM22.5 16.625C23.6612 16.3083 24.6639 15.9257 25.5084 15.4771C26.3528 15.0285 27.1445 14.5931 27.8834 14.1708C28.6223 13.7486 29.2952 13.3924 29.9021 13.1021C30.5091 12.8118 31.2084 12.6667 32 12.6667C32.7917 12.6667 33.491 12.8118 34.098 13.1021C34.7049 13.3924 35.3778 13.7486 36.1167 14.1708C36.8556 14.5931 37.6341 15.0285 38.4521 15.4771C39.2702 15.9257 40.2862 16.3083 41.5 16.625V13.3C40.7084 13.0361 40.0223 12.7458 39.4417 12.4292L37.7 11.4792C36.8556 10.9514 35.998 10.4896 35.1271 10.0937C34.2563 9.69792 33.2139 9.5 32 9.5C30.7862 9.5 29.7438 9.69792 28.873 10.0937C28.0021 10.4896 27.1181 10.9514 26.2209 11.4792L24.4792 12.4292C23.8987 12.7458 23.2389 13.0361 22.5 13.3V16.625ZM49.4167 28.4208C51.8445 27.3125 54.0348 25.3333 55.9875 22.4833C57.9403 19.6333 58.9167 15.3056 58.9167 9.5V7.91667C58.9167 7.01944 58.6132 6.26736 58.0063 5.66042C57.3993 5.05347 56.6473 4.75 55.75 4.75C54.8528 4.75 54.1007 5.05347 53.4938 5.66042C52.8868 6.26736 52.5834 7.01944 52.5834 7.91667V17.4167C52.5834 19.4222 52.3195 21.3618 51.7917 23.2354C51.2639 25.109 50.4723 26.8375 49.4167 28.4208Z" fill="url(#paint0_linear_2062_9)"/>
<defs>
<linearGradient id="paint0_linear_2062_9" x1="32" y1="0" x2="32" y2="38" gradientUnits="userSpaceOnUse">
<stop stop-color="#ECCE8F"/>
<stop offset="1" stop-color="#9F895A"/>
</linearGradient>
</defs>
</svg>
