<svg width="26" height="64" viewBox="0 0 26 64" fill="none" xmlns="http://www.w3.org/2000/svg">
<path d="M6.66671 63.6667V47.8333H0.333374V25.6667C0.333374 23.0278 1.25699 20.7847 3.10421 18.9375C4.95143 17.0903 7.19449 16.1667 9.83337 16.1667C12.4723 16.1667 14.7153 17.0903 16.5625 18.9375C18.4098 20.7847 19.3334 23.0278 19.3334 25.6667C21.2334 26.4583 22.7639 27.725 23.925 29.4667C25.0862 31.2083 25.6667 33.1083 25.6667 35.1667V47.8333H16.1667V63.6667H6.66671ZM9.83337 13C8.09171 13 6.60074 12.3799 5.36046 11.1396C4.12018 9.89932 3.50004 8.40834 3.50004 6.66668C3.50004 4.92501 4.12018 3.43404 5.36046 2.19376C6.60074 0.953482 8.09171 0.333344 9.83337 0.333344C11.575 0.333344 13.066 0.953482 14.3063 2.19376C15.5466 3.43404 16.1667 4.92501 16.1667 6.66668C16.1667 8.40834 15.5466 9.89932 14.3063 11.1396C13.066 12.3799 11.575 13 9.83337 13Z" fill="url(#paint0_linear_2062_3)"/>
<defs>
<linearGradient id="paint0_linear_2062_3" x1="0.333374" y1="38.2651" x2="25.6667" y2="25.735" gradientUnits="userSpaceOnUse">
<stop offset="0.132981" stop-color="#ECCE8F"/>
<stop offset="1" stop-color="#9F895A"/>
</linearGradient>
</defs>
</svg>
