<svg width="70" height="56" viewBox="0 0 70 56" fill="none" xmlns="http://www.w3.org/2000/svg">
<path d="M9.66663 20.5C8.7694 20.5 8.01732 20.1965 7.41038 19.5896C6.80343 18.9826 6.49996 18.2306 6.49996 17.3333C6.49996 16.4361 6.80343 15.684 7.41038 15.0771C8.01732 14.4701 8.7694 14.1667 9.66663 14.1667H19.1666C20.9083 14.1667 22.3993 14.7868 23.6395 16.0271C24.8798 17.2674 25.5 18.7583 25.5 20.5H9.66663ZM16 49C18.6388 49 20.8819 48.0764 22.7291 46.2292C24.5763 44.3819 25.5 42.1389 25.5 39.5C25.5 36.8611 24.5763 34.6181 22.7291 32.7708C20.8819 30.9236 18.6388 30 16 30C13.3611 30 11.118 30.9236 9.27079 32.7708C7.42357 34.6181 6.49996 36.8611 6.49996 39.5C6.49996 42.1389 7.42357 44.3819 9.27079 46.2292C11.118 48.0764 13.3611 49 16 49ZM58.75 49C60.0694 49 61.1909 48.5382 62.1145 47.6146C63.0382 46.691 63.5 45.5694 63.5 44.25C63.5 42.9306 63.0382 41.809 62.1145 40.8854C61.1909 39.9618 60.0694 39.5 58.75 39.5C57.4305 39.5 56.309 39.9618 55.3854 40.8854C54.4618 41.809 54 42.9306 54 44.25C54 45.5694 54.4618 46.691 55.3854 47.6146C56.309 48.5382 57.4305 49 58.75 49ZM16 44.25C14.6805 44.25 13.559 43.7882 12.6354 42.8646C11.7118 41.941 11.25 40.8194 11.25 39.5C11.25 38.1806 11.7118 37.059 12.6354 36.1354C13.559 35.2118 14.6805 34.75 16 34.75C17.3194 34.75 18.4409 35.2118 19.3645 36.1354C20.2882 37.059 20.75 38.1806 20.75 39.5C20.75 40.8194 20.2882 41.941 19.3645 42.8646C18.4409 43.7882 17.3194 44.25 16 44.25ZM60.3333 33.2458C61.7055 33.5097 62.8402 33.866 63.7375 34.3146C64.6347 34.7632 65.6111 35.4889 66.6666 36.4917V17.3333C66.6666 15.5917 66.0465 14.1007 64.8062 12.8604C63.5659 11.6201 62.075 11 60.3333 11H40.3833L37.0583 7.51667L41.4916 3.08334L39.275 0.866669L28.0333 12.1083L30.4083 14.325L34.8416 9.89167L38.1666 13.2167V20.5C38.1666 22.2417 37.5465 23.7326 36.3062 24.9729C35.0659 26.2132 33.575 26.8333 31.8333 26.8333H25.4208C26.6347 27.7306 27.6111 28.6542 28.35 29.6042C29.0888 30.5542 29.8277 31.7417 30.5666 33.1667H31.8333C35.3166 33.1667 38.2986 31.9264 40.7791 29.4458C43.2597 26.9653 44.5 23.9833 44.5 20.5V17.3333H60.3333V33.2458ZM47.7458 42.6667C48.0625 41.2417 48.4451 40.0938 48.8937 39.2229C49.3423 38.3521 50.0416 37.3889 50.9916 36.3333H31.5166C31.7277 37.5472 31.8333 38.6028 31.8333 39.5C31.8333 40.3972 31.7277 41.4528 31.5166 42.6667H47.7458ZM58.75 55.3333C55.6888 55.3333 53.0763 54.2514 50.9125 52.0875C48.7486 49.9236 47.6666 47.3111 47.6666 44.25C47.6666 41.1889 48.7486 38.5764 50.9125 36.4125C53.0763 34.2486 55.6888 33.1667 58.75 33.1667C61.8111 33.1667 64.4236 34.2486 66.5875 36.4125C68.7514 38.5764 69.8333 41.1889 69.8333 44.25C69.8333 47.3111 68.7514 49.9236 66.5875 52.0875C64.4236 54.2514 61.8111 55.3333 58.75 55.3333ZM16 55.3333C11.6194 55.3333 7.88538 53.7896 4.79788 50.7021C1.71038 47.6146 0.166626 43.8806 0.166626 39.5C0.166626 35.1194 1.71038 31.3854 4.79788 28.2979C7.88538 25.2104 11.6194 23.6667 16 23.6667C20.3805 23.6667 24.1145 25.2104 27.202 28.2979C30.2895 31.3854 31.8333 35.1194 31.8333 39.5C31.8333 43.8806 30.2895 47.6146 27.202 50.7021C24.1145 53.7896 20.3805 55.3333 16 55.3333Z" fill="url(#paint0_linear_2034_84)"/>
<defs>
<linearGradient id="paint0_linear_2034_84" x1="35" y1="0.866669" x2="35" y2="55.3333" gradientUnits="userSpaceOnUse">
<stop stop-color="#ECCE8F"/>
<stop offset="1" stop-color="#9F895A"/>
</linearGradient>
</defs>
</svg>
