<svg width="58" height="61" viewBox="0 0 58 61" fill="none" xmlns="http://www.w3.org/2000/svg">
<path d="M0.5 60.5V16.1667H19.5V9.83333L29 0.333328L38.5 9.83333V28.8333H57.5V60.5H0.5ZM6.83333 54.1667H13.1667V47.8333H6.83333V54.1667ZM6.83333 41.5H13.1667V35.1667H6.83333V41.5ZM6.83333 28.8333H13.1667V22.5H6.83333V28.8333ZM25.8333 54.1667H32.1667V47.8333H25.8333V54.1667ZM25.8333 41.5H32.1667V35.1667H25.8333V41.5ZM25.8333 28.8333H32.1667V22.5H25.8333V28.8333ZM25.8333 16.1667H32.1667V9.83333H25.8333V16.1667ZM44.8333 54.1667H51.1667V47.8333H44.8333V54.1667ZM44.8333 41.5H51.1667V35.1667H44.8333V41.5Z" fill="url(#paint0_linear_2033_66)"/>
<defs>
<linearGradient id="paint0_linear_2033_66" x1="29" y1="0.333328" x2="29" y2="60.5" gradientUnits="userSpaceOnUse">
<stop stop-color="#ECCE8F"/>
<stop offset="1" stop-color="#9F895A"/>
</linearGradient>
</defs>
</svg>
